<?xml version="1.0" encoding="UTF-8"?><svg id="Layer_1" xmlns="http://www.w3.org/2000/svg" viewBox="0 0 44.85 18.76"><path d="M40.23,11.3c-.77.67-2.12,1.33-4.05,2-3.83,1.3-8.58,1.95-14.25,1.95-6.53,0-11.82-.72-15.85-2.15-2.03-.73-3.4-1.47-4.1-2.2,1.17-.17,2.65-.83,4.45-2,3.27-2.17,5.18-3.4,5.75-3.7,3.1-1.73,5.78-3.47,8.05-5.2,1.43,1.17,4.98,3.2,10.65,6.1,3.7,1.87,6.82,3.6,9.35,5.2Z" style="fill-rule:evenodd; stroke-width:0px;"/><path d="M2.18,10.9c.7.77.65,1.22-.15,1.35-.87.1-1.37-.05-1.5-.45-.1-.3.08-.58.55-.85.5-.3.87-.32,1.1-.05Z" style="fill-rule:evenodd; stroke-width:0px;"/><path d="M2.73,13.2c.67.27.83.5.5.7-.3.17-.68.18-1.15.05-.4-.07-.47-.23-.2-.5s.55-.35.85-.25Z" style="fill-rule:evenodd; stroke-width:0px;"/><path d="M4.63,12.2c.37.03.47.13.3.3-.17.13-.35.15-.55.05-.2-.07-.28-.15-.25-.25.07-.1.23-.13.5-.1Z" style="fill-rule:evenodd; stroke-width:0px;"/><path d="M5.78,13.2c.43.1.33.18-.3.25-.1-.03-.12-.08-.05-.15.1-.1.22-.13.35-.1Z" style="fill-rule:evenodd; stroke-width:0px;"/><path d="M8.78,14.85c-.4-.2-.4-.38,0-.55.37-.17.7-.2,1-.1.2.1.83.13,1.9.1.57.07.83.32.8.75-.03.2-.07.45-.1.75.13.1,0,.18-.4.25-.37.07-.7.07-1,0-.23-.03-.4-.15-.5-.35s-.17-.32-.2-.35c0,0-1.5-.5-1.5-.5Z" style="fill-rule:evenodd; stroke-width:0px;"/><path d="M9.28,15.2c.4.1.55.2.45.3-.07.1-.25.17-.55.2-.5.03-.85-.03-1.05-.2-.17-.13-.07-.23.3-.3.33-.07.62-.07.85,0Z" style="fill-rule:evenodd; stroke-width:0px;"/><path d="M3.83,10.35c-.4.2-.73.28-1,.25-.47-.07-.67-.13-.6-.2.07-.13.15-.23.25-.3.2-.2.45-.27.75-.2.5.1.7.25.6.45Z" style="fill-rule:evenodd; stroke-width:0px;"/><path d="M.83,12.05c-.07.1-.22.13-.45.1-.37-.07-.47-.22-.3-.45.07-.17.25-.2.55-.1.13,0,.2.15.2.45Z" style="fill-rule:evenodd; stroke-width:0px;"/><path d="M6.43,15.45c.6.07.77.25.5.55-.27.3-.72.35-1.35.15-.57-.2-.68-.38-.35-.55.3-.16.7-.22,1.2-.15Z" style="fill-rule:evenodd; stroke-width:0px;"/><path d="M21.43,16.15c0,.07-.48.15-1.45.25-1.03.13-1.88.2-2.55.2s-1.2-.1-1.6-.3c-.4-.17-.55-.33-.45-.5.13-.47.55-.92,1.25-1.35.43-.27.98-.33,1.65-.2.57.07,1.1.25,1.6.55.37.23.73.52,1.1.85.3.27.45.43.45.5Z" style="fill-rule:evenodd; stroke-width:0px;"/><path d="M22.48,15.75l1.15.85c-.13.4-.57.67-1.3.8-1.03.23-1.97.17-2.8-.2-.2-.1-.17-.32.1-.65.13-.17.35-.4.65-.7.13-.2.43-.32.9-.35.47-.07.9.02,1.3.25Z" style="fill-rule:evenodd; stroke-width:0px;"/><path d="M16.73,16.85c.3.07.58.23.85.5.23.27.27.47.1.6-.13.13-.55.18-1.25.15-.57-.03-1.05-.1-1.45-.2-.27-.07-.38-.17-.35-.3.03-.07.18-.22.45-.45.4-.37.95-.47,1.65-.3Z" style="fill-rule:evenodd; stroke-width:0px;"/><path d="M15.53,18.1c.13.13.12.23-.05.3-.37.17-.88.18-1.55.05-.4-.13-.23-.4.5-.8.17-.13.37-.15.6-.05.23.1.4.27.5.5Z" style="fill-rule:evenodd; stroke-width:0px;"/><path d="M29.38,15.5c.1-.17.23-.43.4-.8.13-.33.35-.57.65-.7.37-.17.78-.22,1.25-.15s.82.22,1.05.45c.27.3.62.53,1.05.7.2.07.42.27.65.6.2.3.25.48.15.55-.13.1-.47.2-1,.3-.57.13-1.05.22-1.45.25-.03,0-.45.03-1.25.1-.47.03-.82,0-1.05-.1-.23-.1-.38-.28-.45-.55-.07-.23-.07-.45,0-.65Z" style="fill-rule:evenodd; stroke-width:0px;"/><path d="M30.08,16.05c.37.07.72.3,1.05.7.33.37.38.62.15.75-.73.3-1.35.45-1.85.45-.83,0-1.4-.28-1.7-.85-.07-.13.02-.25.25-.35.33-.2.55-.37.65-.5.17-.2.38-.3.65-.3.07,0,.33.03.8.1Z" style="fill-rule:evenodd; stroke-width:0px;"/><path d="M27.38,17.9c.5.23.6.45.3.65-.3.17-.65.23-1.05.2-.27-.03-.43-.12-.5-.25-.03-.13-.02-.23.05-.3.03-.1.18-.2.45-.3.33-.1.58-.1.75,0Z" style="fill-rule:evenodd; stroke-width:0px;"/><path d="M28.43,15c.27.5-.23.75-1.5.75-.53,0-.58-.25-.15-.75.23-.2.52-.32.85-.35.4-.03.67.08.8.35Z" style="fill-rule:evenodd; stroke-width:0px;"/><path d="M38.83,13.15c-.63.97-1.55,1.37-2.75,1.2-.77-.13-.97-.45-.6-.95.07-.1.52-.52,1.35-1.25.37-.3.67-.33.9-.1.17.14.53.5,1.1,1.1Z" style="fill-rule:evenodd; stroke-width:0px;"/><path d="M40.28,13.3c-.17.77-.67,1.15-1.5,1.15-.53.03-.82-.08-.85-.35,0-.13.1-.42.3-.85.1-.23.33-.33.7-.3.13.03.58.15,1.35.35Z" style="fill-rule:evenodd; stroke-width:0px;"/><path d="M44.18,13.75c.1.03.25.17.45.4.2.27.27.48.2.65-.1.27-1.02.33-2.75.2-.47-.07-.63-.17-.5-.3l.5-.45c.07-.23.3-.42.7-.55.5-.2.97-.18,1.4.05Z" style="fill-rule:evenodd; stroke-width:0px;"/><path d="M41.03,11.7c-.5-.17-.83-.3-1-.4l-.6-.6.15-.2c.2-.1.45-.1.75,0,.5.2.88.5,1.15.9.5.37.62.55.35.55-.06,0-.33-.08-.8-.25Z" style="fill-rule:evenodd; stroke-width:0px;"/><path d="M41.53,12.8c-.27,0-.65-.07-1.15-.2-.5-.1-.78-.18-.85-.25-.03-.03.03-.12.2-.25.07-.03.15-.08.25-.15.2-.3.47-.52.8-.65.33-.13.65-.13.95,0,.4.2.88.55,1.45,1.05-.73.3-1.28.45-1.65.45Z" style="fill-rule:evenodd; stroke-width:0px;"/><path d="M43.88,12.1c.6.43.8.73.6.9-.17.1-.83.12-2,.05-.37-.03-.5-.13-.4-.3l.35-.35c.1-.13.27-.25.5-.35.37-.13.68-.11.95.05Z" style="fill-rule:evenodd; stroke-width:0px;"/><path d="M42.03,9.9c.17.07.32.17.45.3.13.17.13.28,0,.35-.2.1-.58.03-1.15-.2-.17-.03-.12-.13.15-.3.23-.17.42-.22.55-.15Z" style="fill-rule:evenodd; stroke-width:0px;"/><path d="M38.73,14.9c.87.93,1.13,1.48.8,1.65-.23.13-.73.28-1.5.45-.83.17-1.5.25-2,.25-.4-.03-.82-.17-1.25-.4l-.55-.35.7-1.1c.1-.2.38-.45.85-.75.47-.37.85-.57,1.15-.6.27-.03.58.05.95.25.2.14.48.34.85.6Z" style="fill-rule:evenodd; stroke-width:0px;"/><path d="M41.43,15.9c.57.13.8.3.7.5-.1.17-.33.27-.7.3-.5.1-.87.03-1.1-.2-.13-.1-.07-.25.2-.45.3-.2.6-.25.9-.15Z" style="fill-rule:evenodd; stroke-width:0px;"/><path d="M32.68,9.35c.3.37.45.6.45.7,0,.07-.05.18-.15.35-.03.23-.28.37-.75.4-.47,0-.75-.22-.85-.65-.1-.6-.05-1.03.15-1.3.23-.3.62-.13,1.15.5Z" style="fill-rule:evenodd; stroke-width:0px;"/><path d="M35.73,9.65c.77.37.98.77.65,1.2-.17.23-.45.23-.85,0s-.62-.5-.65-.8c-.07-.67.22-.8.85-.4Z" style="fill-rule:evenodd; stroke-width:0px;"/><path d="M37.48,10.45c.27.23.4.37.4.4.07.07.05.15-.05.25-.2.2-.47.15-.8-.15-.2-.13-.2-.28,0-.45.17-.17.32-.18.45-.05Z" style="fill-rule:evenodd; stroke-width:0px;"/><path d="M29.53,6.25c.23.2.37.42.4.65.03.3-.1.5-.4.6-.27.13-.48.07-.65-.2-.13-.37-.25-.65-.35-.85-.13-.27-.08-.42.15-.45.23-.07.52.02.85.25Z" style="fill-rule:evenodd; stroke-width:0px;"/><path d="M31.73,6.95c.53.47.68.83.45,1.1-.2.3-.55.1-1.05-.6-.23-.23-.25-.43-.05-.6.2-.13.42-.1.65.1Z" style="fill-rule:evenodd; stroke-width:0px;"/><path d="M33.68,10.5c.3.23.48.5.55.8.07.33-.07.52-.4.55-.33.03-.55-.08-.65-.35-.13-.27-.13-.5,0-.7.17-.37.33-.47.5-.3Z" style="fill-rule:evenodd; stroke-width:0px;"/><path d="M25.03,3.5c.27.2.4.42.4.65.03.27-.12.45-.45.55-.3.1-.55-.03-.75-.4-.17-.3-.25-.63-.25-1,0-.43.35-.37,1.05.2Z" style="fill-rule:evenodd; stroke-width:0px;"/><path d="M23.33,2.9c.13.17.2.33.2.5-.03.13-.1.23-.2.3-.13.07-.27,0-.4-.2-.17-.17-.25-.33-.25-.5s.08-.25.25-.25c.13-.03.27.02.4.15Z" style="fill-rule:evenodd; stroke-width:0px;"/><path d="M28.68,8.6c.5.97.32,1.55-.55,1.75-.27.07-.42-.08-.45-.45,0-.1.02-.47.05-1.1,0-.3.13-.47.4-.5.23-.07.42.03.55.3Z" style="fill-rule:evenodd; stroke-width:0px;"/><path d="M30.03,9.95c.27.3.33.63.2,1-.03.13-.17.17-.4.1s-.42-.25-.55-.55c-.1-.3-.02-.5.25-.6.23-.07.4-.05.5.05Z" style="fill-rule:evenodd; stroke-width:0px;"/><path d="M28.48,12.2c.23.27.4.58.5.95.07.43-.03.7-.3.8-.3.1-.52.08-.65-.05-.13-.1-.3-.35-.5-.75-.2-.4-.15-.72.15-.95.3-.27.57-.27.8,0Z" style="fill-rule:evenodd; stroke-width:0px;"/><path d="M25.18,12.1c.13-.03.3.1.5.4.23.27.33.48.3.65-.07.3-.4.4-1,.3-.27-.03-.35-.25-.25-.65.07-.4.22-.63.45-.7Z" style="fill-rule:evenodd; stroke-width:0px;"/><path d="M33.28,12.4c.2.2.32.4.35.6.03.27-.05.45-.25.55-.33.17-.65-.05-.95-.65-.1-.23-.05-.43.15-.6.23-.13.47-.1.7.1Z" style="fill-rule:evenodd; stroke-width:0px;"/><path d="M34.18,8.3c.07.6-.08.97-.45,1.1-.23.07-.38-.02-.45-.25-.03-.3-.1-.53-.2-.7-.2-.4.17-.45,1.1-.15Z" style="fill-rule:evenodd; stroke-width:0px;"/><path d="M17.03,3.05c.6-.23.77.05.5.85-.07.27-.23.47-.5.6-.33.1-.7.03-1.1-.2-.53-.27-.17-.68,1.1-1.25Z" style="fill-rule:evenodd; stroke-width:0px;"/><path d="M15.48,4.95c.27,0,.42.12.45.35.03.2-.05.37-.25.5-.3.23-.55.15-.75-.25s-.02-.6.55-.6Z" style="fill-rule:evenodd; stroke-width:0px;"/><path d="M21.33,3.05c.17.43,0,.77-.5,1-.33.17-.43-.07-.3-.7.03-.13.15-.27.35-.4.23-.1.38-.07.45.1Z" style="fill-rule:evenodd; stroke-width:0px;"/><path d="M19.23,4.65l.55-.15s.05.08.05.25c0,.37-.17.52-.5.45-.17-.03-.25-.12-.25-.25-.03-.13.02-.23.15-.3Z" style="fill-rule:evenodd; stroke-width:0px;"/><path d="M11.48,6.4c.4-.1.65-.05.75.15.07.17.02.4-.15.7-.23.4-.75.47-1.55.2-.3-.1-.27-.28.1-.55.3-.23.58-.4.85-.5Z" style="fill-rule:evenodd; stroke-width:0px;"/><path d="M13.48,6.15c.47-.2.67-.13.6.2-.07.37-.23.63-.5.8-.4.23-.72.2-.95-.1-.2-.27.08-.57.85-.9Z" style="fill-rule:evenodd; stroke-width:0px;"/><path d="M7.98,9.1c.27-.03.42.1.45.4.07.27-.07.53-.4.8-.3.23-.57.33-.8.3-.13,0-.37-.12-.7-.35-.3-.17-.25-.38.15-.65s.83-.43,1.3-.5Z" style="fill-rule:evenodd; stroke-width:0px;"/><path d="M9.43,8.75c.27-.07.43,0,.5.2.07.17-.03.37-.3.6-.23.17-.42.25-.55.25-.1-.07-.2-.1-.3-.1-.17-.03-.17-.18,0-.45.17-.27.38-.43.65-.5Z" style="fill-rule:evenodd; stroke-width:0px;"/><path d="M15.23,8.8c.43-.03.67.1.7.4.03.23-.12.55-.45.95-.23.33-.42.47-.55.4-.17-.2-.33-.33-.5-.4-.3-.1-.33-.35-.1-.75.2-.37.5-.57.9-.6Z" style="fill-rule:evenodd; stroke-width:0px;"/><path d="M18.43,9.2c.2-.03.37.05.5.25.17.17.22.3.15.4-.1.23-.43.28-1,.15-.27-.03-.37-.17-.3-.4.1-.2.32-.33.65-.4Z" style="fill-rule:evenodd; stroke-width:0px;"/><path d="M18.23,10.5c.5.1.58.28.25.55-.17.13-.42.1-.75-.1-.13-.13-.13-.25,0-.35.13-.1.3-.13.5-.1Z" style="fill-rule:evenodd; stroke-width:0px;"/><path d="M13.63,12.05c.67-.23,1.02-.08,1.05.45,0,.53-.17.9-.5,1.1s-.68.03-1.05-.5c-.1-.2-.1-.4,0-.6.1-.23.27-.38.5-.45Z" style="fill-rule:evenodd; stroke-width:0px;"/><path d="M9.43,11c.37-.2.63-.25.8-.15.17.07.23.17.2.3-.07.37-.35.6-.85.7-.3.07-.45-.03-.45-.3s.1-.45.3-.55Z" style="fill-rule:evenodd; stroke-width:0px;"/><path d="M20.88,12.8c.8-.03.83.25.1.85-.13.1-.25.13-.35.1-.07-.1-.13-.17-.2-.2-.1-.07-.12-.2-.05-.4.1-.23.27-.35.5-.35Z" style="fill-rule:evenodd; stroke-width:0px;"/><path d="M17.23,14.45c.33.03.52.23.55.6,0,.37-.18.63-.55.8-.3.17-.48.2-.55.1-.07-.2-.17-.37-.3-.5-.13-.2-.08-.43.15-.7.27-.27.5-.37.7-.3Z" style="fill-rule:evenodd; stroke-width:0px;"/><path d="M20.68,15.85c.13.07.23.18.3.35.1.2.1.37,0,.5-.1.17-.2.22-.3.15-.13-.13-.28-.27-.45-.4-.23-.2-.27-.37-.1-.5.17-.17.35-.2.55-.1Z" style="fill-rule:evenodd; stroke-width:0px;"/><path d="M30.63,14.25c.5-.07.73.1.7.5,0,.37-.12.68-.35.95-.17.2-.37.22-.6.05-.2-.13-.37-.3-.5-.5-.07-.17-.05-.35.05-.55.14-.27.37-.42.7-.45Z" style="fill-rule:evenodd; stroke-width:0px;"/><path d="M1.33,11c.23-.07.3.07.2.4-.1.3-.28.43-.55.4s-.33-.16-.2-.4c.13-.17.32-.3.55-.4Z" style="fill-rule:evenodd; stroke-width:0px;"/><path d="M2.43,13.4c.17,0,.22.07.15.2-.07.1-.2.15-.4.15-.33,0-.25-.11.25-.35Z" style="fill-rule:evenodd; stroke-width:0px;"/><path d="M9.08,14.4c.13.03.22.1.25.2,0,.1-.12.15-.35.15-.2,0-.27-.07-.2-.2.1-.13.2-.18.3-.15Z" style="fill-rule:evenodd; stroke-width:0px;"/><path d="M10.93,14.55c.2.03.35.15.45.35.07.17.02.32-.15.45-.13.1-.27.1-.4,0-.17-.17-.33-.32-.5-.45-.23-.23-.03-.35.6-.35Z" style="fill-rule:evenodd; stroke-width:0px;"/><path d="M29.08,16.55c.17,0,.27.12.3.35.03.2.02.35-.05.45-.17.23-.55.15-1.15-.25-.27-.17-.27-.3,0-.4.2-.1.5-.15.9-.15Z" style="fill-rule:evenodd; stroke-width:0px;"/><path d="M35.58,15.2c.2-.07.4.03.6.3.23.27.33.52.3.75,0,.2-.18.33-.55.4-.33.03-.63,0-.9-.1-.23-.07-.28-.28-.15-.65.13-.37.37-.6.7-.7Z" style="fill-rule:evenodd; stroke-width:0px;"/><path d="M36.43,12.95c.3,0,.38.15.25.45-.07.2-.22.32-.45.35-.23,0-.4-.05-.5-.15-.07-.1-.02-.23.15-.4.17-.17.35-.25.55-.25Z" style="fill-rule:evenodd; stroke-width:0px;"/><path d="M38.48,13.25c.13-.03.25,0,.35.1.1.1.15.22.15.35,0,.3-.25.42-.75.35-.2-.03-.25-.15-.15-.35.07-.23.2-.38.4-.45Z" style="fill-rule:evenodd; stroke-width:0px;"/><path d="M42.53,14.1c.2-.03.33.03.4.2.07.1.05.2-.05.3-.07.07-.22.1-.45.1l-.3-.05v-.25c.07-.17.2-.27.4-.3Z" style="fill-rule:evenodd; stroke-width:0px;"/><path d="M42.88,12.35c.13-.03.22.02.25.15.03.1,0,.2-.1.3-.1.13-.32.15-.65.05-.13-.03-.12-.12.05-.25.13-.13.28-.22.45-.25Z" style="fill-rule:evenodd; stroke-width:0px;"/><path d="M40.58,11.65c.17-.1.3-.02.4.25.07.3.05.5-.05.6-.07.07-.17.05-.3-.05l-.3-.3c-.2-.1-.12-.27.25-.5Z" style="fill-rule:evenodd; stroke-width:0px;"/><path d="M40.33,10.8c.17.3.17.43,0,.4-.17-.07-.3-.18-.4-.35-.07-.1-.02-.15.15-.15.13,0,.22.03.25.1Z" style="fill-rule:evenodd; stroke-width:0px;"/><path d="M15.63,16.9c.27,0,.42.02.45.05s.07.13.1.3c.1.17.12.27.05.3s-.32,0-.75-.1c-.4-.1-.52-.22-.35-.35.13-.13.3-.2.5-.2Z" style="fill-rule:evenodd; stroke-width:0px;"/><path d="M14.58,17.8c.2.03.22.1.05.2s-.35.12-.55.05c-.2-.03-.22-.1-.05-.2.17-.07.35-.08.55-.05Z" style="fill-rule:evenodd; stroke-width:0px;"/></svg>